<svg width="340" height="431" viewBox="0 0 340 431" fill="none" xmlns="http://www.w3.org/2000/svg">
<g filter="url(#filter0_d_1_32)">
<path d="M116.308 142.368C121.626 152.809 132.12 175.298 131.556 181.731C130.991 188.164 144.639 236.28 151.534 259.534M151.534 259.534C153.166 236.197 154.797 188.259 148.259 183.197C141.721 178.135 146.216 135.434 149.281 114.717M151.534 259.534C157.287 241.338 168.521 200.933 167.436 184.879C166.352 168.826 175.096 147.319 179.604 138.572" stroke="white"/>
<ellipse cx="47.196" cy="47.1949" rx="47.196" ry="47.1949" transform="matrix(0.819022 0.573761 -0.573813 0.818986 199.567 31.859)" fill="url(#paint0_radial_1_32)"/>
<rect width="47.196" height="4.96789" rx="2.48394" transform="matrix(0.819022 0.573761 -0.573813 0.818986 169.008 116.6)" fill="white"/>
<rect width="37.26" height="4.96789" rx="2.48394" transform="matrix(0.819022 0.573762 -0.573813 0.818986 170.226 123.519)" fill="#ECE9E9"/>
<ellipse cx="5.589" cy="5.58887" rx="5.589" ry="5.58887" transform="matrix(0.819022 0.573762 -0.573813 0.818986 176.835 135.731)" fill="#ECEBEB"/>
<rect width="28.566" height="4.96788" rx="2.48394" transform="matrix(0.819022 0.573762 -0.573813 0.818986 170.427 129.725)" fill="white"/>
<ellipse cx="47.1965" cy="47.1944" rx="47.1965" ry="47.1944" transform="matrix(0.906427 -0.422362 0.422408 0.906406 29.6618 65.4421)" fill="url(#paint1_radial_1_32)"/>
<rect width="47.1965" height="4.96784" rx="2.48392" transform="matrix(0.906428 -0.422361 0.422409 0.906405 87.7748 134.275)" fill="white"/>
<rect width="37.2604" height="4.96784" rx="2.48392" transform="matrix(0.906427 -0.422362 0.422408 0.906406 94.3765 136.68)" fill="#ECE9E9"/>
<ellipse cx="5.58905" cy="5.58881" rx="5.58905" ry="5.58881" transform="matrix(0.906427 -0.422362 0.422407 0.906406 108.258 137.063)" fill="#ECEBEB"/>
<rect width="28.5663" height="4.96783" rx="2.48392" transform="matrix(0.906428 -0.422361 0.422409 0.906405 99.8523 139.609)" fill="white"/>
<ellipse cx="47.197" cy="47.1939" rx="47.197" ry="47.1939" transform="matrix(0.996173 0.0874064 -0.0874181 0.996172 112.003 6.72194)" fill="url(#paint2_radial_1_32)"/>
<rect width="47.197" height="4.96778" rx="2.48389" transform="matrix(0.996173 0.0874064 -0.0874181 0.996172 127.911 95.3879)" fill="white"/>
<rect width="37.2608" height="4.96778" rx="2.48389" transform="matrix(0.996173 0.0874065 -0.0874181 0.996172 132.426 100.771)" fill="#ECE9E9"/>
<ellipse cx="5.58914" cy="5.58875" rx="5.58914" ry="5.58875" transform="matrix(0.996173 0.0874062 -0.0874184 0.996172 144.256 108.043)" fill="#ECEBEB"/>
<rect width="28.5666" height="4.96778" rx="2.48389" transform="matrix(0.996173 0.0874064 -0.0874182 0.996172 135.704 106.045)" fill="white"/>
<rect width="121.718" height="114.26" rx="15" transform="matrix(0.937195 0.348807 -0.348849 0.937179 197.189 219.448)" fill="#686767"/>
<rect width="121.718" height="2.48391" transform="matrix(0.937195 0.348807 -0.348849 0.937179 186.357 248.547)" fill="#595959"/>
<rect width="121.718" height="2.48391" transform="matrix(0.937194 0.348807 -0.348848 0.937179 182.025 260.186)" fill="#595959"/>
<ellipse cx="2.48405" cy="2.48392" rx="2.48405" ry="2.48392" transform="matrix(0.937194 0.348807 -0.348848 0.937179 193.749 239.371)" fill="#7D7D7D"/>
<ellipse cx="2.484" cy="2.4839" rx="2.484" ry="2.4839" transform="matrix(0.937193 0.34881 -0.348845 0.93718 293.854 276.628)" fill="#7D7D7D"/>
<ellipse cx="2.48403" cy="2.4839" rx="2.48403" ry="2.4839" transform="matrix(0.937194 0.348807 -0.348848 0.937179 183.784 266.142)" fill="#7D7D7D"/>
<ellipse cx="2.48405" cy="2.48392" rx="2.48405" ry="2.48392" transform="matrix(0.937194 0.348807 -0.348848 0.937179 283.889 303.399)" fill="#7D7D7D"/>
<rect width="23.5983" height="63.3397" rx="10" transform="matrix(0.937194 0.348807 -0.348848 0.937179 262.646 296.163)" fill="white"/>
<ellipse cx="8.07312" cy="8.0727" rx="8.07312" ry="8.0727" transform="matrix(0.937195 0.348807 -0.348849 0.937179 253.464 345.753)" fill="url(#paint3_radial_1_32)"/>
<path d="M241.714 355.956L182.35 333.862L164.175 382.687C162.249 387.863 164.883 393.62 170.059 395.547L174.013 397.019C179.189 398.945 184.947 396.311 186.874 391.135L195.029 369.226C196.375 365.61 200.397 363.77 204.014 365.116C207.63 366.461 209.47 370.484 208.124 374.1L199.969 396.009C198.042 401.184 200.676 406.942 205.852 408.868L210.68 410.665C215.856 412.592 221.613 409.957 223.54 404.781L241.714 355.956Z" fill="white"/>
<rect width="80.7311" height="78.2431" transform="matrix(0.937195 0.348807 -0.348849 0.937179 200.63 259.83)" fill="#F2F2F2"/>
<rect width="75.763" height="22.3552" transform="matrix(0.937195 0.348807 -0.348849 0.937179 179.996 322.385)" fill="#F2F2F2"/>
<rect width="6.21009" height="78.2432" transform="matrix(0.937194 0.348808 -0.348848 0.937179 212.27 264.162)" fill="url(#paint4_linear_1_32)"/>
<rect width="6.2101" height="78.2431" transform="matrix(0.937195 0.348807 -0.348849 0.937179 256.503 280.624)" fill="url(#paint5_linear_1_32)"/>
<rect width="80.7311" height="2.48391" transform="matrix(0.937195 0.348807 -0.348849 0.937179 174.202 330.83)" fill="#9A9A9A"/>
<rect width="8.69415" height="19.8713" rx="4.34707" transform="matrix(0.937195 0.348806 -0.34885 0.937179 287.122 258.891)" fill="white"/>
<rect width="8.69412" height="19.8713" rx="4.34706" transform="matrix(0.937194 0.348808 -0.348848 0.937179 203.313 227.699)" fill="white"/>
<path d="M286.914 269.415C278.348 292.427 252.748 304.139 229.734 295.573C206.72 287.008 195.008 261.409 203.574 238.397C212.14 215.385 237.74 203.673 260.754 212.239C283.768 220.804 295.48 246.403 286.914 269.415Z" fill="white" stroke="#F2F2F2" stroke-width="0.5"/>
<path fill-rule="evenodd" clip-rule="evenodd" d="M286.652 270.642C277.233 292.252 252.442 302.966 230.08 294.644C207.718 286.321 195.967 262.006 202.97 239.497C202.641 240.252 202.33 241.021 202.04 241.802C193.426 264.943 205.204 290.686 228.347 299.299C251.49 307.913 277.234 296.135 285.849 272.994C286.139 272.213 286.407 271.428 286.652 270.642Z" fill="#DDDDDD"/>
<path fill-rule="evenodd" clip-rule="evenodd" d="M284.918 275.298C275.499 296.907 250.709 307.622 228.347 299.299C205.985 290.976 194.234 266.661 201.237 244.153C200.908 244.908 200.597 245.676 200.307 246.457C191.693 269.599 203.471 295.341 226.614 303.955C249.757 312.568 275.501 300.791 284.116 277.649C284.406 276.868 284.674 276.084 284.918 275.298Z" fill="white"/>
<path d="M287.975 253.908C277.69 238.815 239.129 223.138 216.741 222.757C203.623 238.416 199.382 258.39 210.983 275.609C217.425 285.171 224.194 288.983 235.156 292.557C243.265 295.202 248.518 296.297 256.893 294.684C276.556 290.898 288.15 265.899 287.975 253.908Z" fill="black"/>
<rect x="243.622" y="304.153" width="2.48404" height="1.24196" rx="0.620981" transform="rotate(0.415624 243.622 304.153)" fill="#C4C4C4"/>
<rect width="1.24206" height="1.24191" rx="0.620954" transform="matrix(0.999974 0.00725338 -0.00725516 0.999974 249.145 303.558)" fill="#C4C4C4"/>
<mask id="mask0_1_32" style="mask-type:alpha" maskUnits="userSpaceOnUse" x="204" y="222" width="84" height="74">
<path d="M287.975 253.908C277.69 238.815 239.129 223.138 216.741 222.757C203.623 238.416 199.382 258.39 210.983 275.609C217.425 285.171 224.194 288.983 235.156 292.557C243.265 295.202 248.518 296.297 256.893 294.684C276.556 290.898 288.15 265.899 287.975 253.908Z" fill="black"/>
</mask>
<g mask="url(#mask0_1_32)">
<rect width="12.4197" height="68.8181" transform="matrix(0.567645 0.823274 -0.823309 0.567593 250.153 219.348)" fill="#484848"/>
<rect width="7.00796" height="72.5482" transform="matrix(0.567645 0.823274 -0.823309 0.567594 266.435 232.921)" fill="#484848"/>
</g>
<ellipse cx="8.07311" cy="8.0727" rx="8.07311" ry="8.0727" transform="matrix(0.937194 0.348808 -0.348848 0.937179 219.015 228.242)" fill="#828282" fill-opacity="0.5"/>
<ellipse cx="4.34708" cy="4.34683" rx="4.34708" ry="4.34683" transform="matrix(0.937195 0.348805 -0.348851 0.937178 230.655 232.574)" fill="#828282" fill-opacity="0.5"/>
<ellipse cx="3.10503" cy="3.10489" rx="3.10503" ry="3.10489" transform="matrix(0.937194 0.348809 -0.348847 0.93718 214.682 239.881)" fill="#828282" fill-opacity="0.5"/>
<ellipse cx="3.10504" cy="3.10489" rx="3.10504" ry="3.10489" transform="matrix(0.937194 0.348808 -0.348848 0.937179 232.497 213.382)" fill="#E8E8E8"/>
<ellipse cx="3.10506" cy="3.10489" rx="3.10506" ry="3.10489" transform="matrix(0.937195 0.348806 -0.34885 0.937179 247.035 213.492)" fill="#E8E8E8"/>
<rect width="33.5345" height="17.3874" rx="5" transform="matrix(0.937194 0.348808 -0.348848 0.937179 207.718 304.873)" fill="#273AE7"/>
<path d="M226.64 314.566L218.758 317.43L223.685 318.436L212.995 322.74" stroke="#D2CB15"/>
<path d="M190.639 275.989C193.834 274.527 197.014 277.257 198.205 278.805L193.873 290.444C193.873 290.444 176.086 299.064 169.468 297.263C165.872 296.285 148.463 268.243 148.463 268.243L156.505 257.321L174.451 280.435C174.97 281.104 175.851 281.374 176.653 281.106C180.798 279.718 187.782 277.296 190.639 275.989Z" fill="white"/>
<ellipse cx="8.07312" cy="8.07269" rx="8.07312" ry="8.07269" transform="matrix(0.937195 0.348807 -0.348849 0.937179 145.948 250.079)" fill="url(#paint6_radial_1_32)"/>
</g>
<defs>
<filter id="filter0_d_1_32" x="41.169" y="10.6638" width="269.807" height="408.632" filterUnits="userSpaceOnUse" color-interpolation-filters="sRGB">
<feFlood flood-opacity="0" result="BackgroundImageFix"/>
<feColorMatrix in="SourceAlpha" type="matrix" values="0 0 0 0 0 0 0 0 0 0 0 0 0 0 0 0 0 0 127 0" result="hardAlpha"/>
<feOffset dy="4"/>
<feGaussianBlur stdDeviation="2"/>
<feComposite in2="hardAlpha" operator="out"/>
<feColorMatrix type="matrix" values="0 0 0 0 0 0 0 0 0 0 0 0 0 0 0 0 0 0 0.25 0"/>
<feBlend mode="normal" in2="BackgroundImageFix" result="effect1_dropShadow_1_32"/>
<feBlend mode="normal" in="SourceGraphic" in2="effect1_dropShadow_1_32" result="shape"/>
</filter>
<radialGradient id="paint0_radial_1_32" cx="0" cy="0" r="1" gradientUnits="userSpaceOnUse" gradientTransform="translate(32.913 36.6382) rotate(69.6463) scale(41.0651 41.0658)">
<stop stop-color="#FFEFFB"/>
<stop offset="1" stop-color="#F672D9"/>
</radialGradient>
<radialGradient id="paint1_radial_1_32" cx="0" cy="0" r="1" gradientUnits="userSpaceOnUse" gradientTransform="translate(32.9133 36.6378) rotate(69.646) scale(41.0648 41.0661)">
<stop stop-color="#FFEFFB"/>
<stop offset="1" stop-color="#F672D9"/>
</radialGradient>
<radialGradient id="paint2_radial_1_32" cx="0" cy="0" r="1" gradientUnits="userSpaceOnUse" gradientTransform="translate(32.9137 36.6374) rotate(69.6455) scale(41.0644 41.0665)">
<stop stop-color="#FFEFFB"/>
<stop offset="1" stop-color="#F672D9"/>
</radialGradient>
<radialGradient id="paint3_radial_1_32" cx="0" cy="0" r="1" gradientUnits="userSpaceOnUse" gradientTransform="translate(9.93614 9.93564) rotate(-156.802) scale(4.72943 4.72926)">
<stop stop-color="white"/>
<stop offset="1" stop-color="#DDDDDD"/>
</radialGradient>
<linearGradient id="paint4_linear_1_32" x1="3.10504" y1="0" x2="3.10504" y2="78.2432" gradientUnits="userSpaceOnUse">
<stop stop-color="#3BB094"/>
<stop offset="1" stop-color="#232030"/>
</linearGradient>
<linearGradient id="paint5_linear_1_32" x1="3.10505" y1="0" x2="3.10505" y2="78.2431" gradientUnits="userSpaceOnUse">
<stop stop-color="#3BB094"/>
<stop offset="1" stop-color="#232030"/>
</linearGradient>
<radialGradient id="paint6_radial_1_32" cx="0" cy="0" r="1" gradientUnits="userSpaceOnUse" gradientTransform="translate(4.96807 4.34683) rotate(80.5372) scale(3.77726 3.77744)">
<stop stop-color="white"/>
<stop offset="1" stop-color="#DDDDDD"/>
</radialGradient>
</defs>
</svg>
